<?xml version="1.0" standalone="yes"?>

<svg version="1.1" viewBox="0.0 0.0 623.0 607.0" fill="none" stroke="none" stroke-linecap="square" stroke-miterlimit="10" xmlns="http://www.w3.org/2000/svg" xmlns:xlink="http://www.w3.org/1999/xlink"><clipPath id="p.0"><path d="m0 0l623.0 0l0 607.0l-623.0 0l0 -607.0z" clip-rule="nonzero"></path></clipPath><g clip-path="url(#p.0)"><path fill="#000000" fill-opacity="0.0" d="m0 0l623.6903 0l0 607.084l-623.6903 0z" fill-rule="nonzero"></path><path fill="#073763" d="m20.72441 304.71393l0 0c0 -154.90936 130.34508 -280.48822 291.13388 -280.48822l0 0c77.2135 0 151.26453 29.551352 205.86273 82.15309c54.598206 52.60173 85.27112 123.94501 85.27112 198.33511l0 0c0 154.90933 -130.34506 280.48816 -291.13385 280.48816l0 0c-160.78879 0 -291.13388 -125.57883 -291.13388 -280.48816z" fill-rule="nonzero"></path><path stroke="#000000" stroke-width="2.0" stroke-linejoin="round" stroke-linecap="butt" d="m20.72441 304.71393l0 0c0 -154.90936 130.34508 -280.48822 291.13388 -280.48822l0 0c77.2135 0 151.26453 29.551352 205.86273 82.15309c54.598206 52.60173 85.27112 123.94501 85.27112 198.33511l0 0c0 154.90933 -130.34506 280.48816 -291.13385 280.48816l0 0c-160.78879 0 -291.13388 -125.57883 -291.13388 -280.48816z" fill-rule="nonzero"></path><path fill="#ffffff" d="m96.149605 305.72443l0 0c0 -116.47557 96.50909 -210.89764 215.55908 -210.89764l0 0c57.1698 0 111.99811 22.219505 152.42328 61.770485c40.42514 39.55098 63.135742 93.19362 63.135742 149.12717l0 0c0 116.475525 -96.50906 210.89764 -215.55902 210.89764l0 0c-119.04999 0 -215.55908 -94.42212 -215.55908 -210.89764z" fill-rule="nonzero"></path><path stroke="#000000" stroke-width="2.0" stroke-linejoin="round" stroke-linecap="butt" d="m96.149605 305.72443l0 0c0 -116.47557 96.50909 -210.89764 215.55908 -210.89764l0 0c57.1698 0 111.99811 22.219505 152.42328 61.770485c40.42514 39.55098 63.135742 93.19362 63.135742 149.12717l0 0c0 116.475525 -96.50906 210.89764 -215.55902 210.89764l0 0c-119.04999 0 -215.55908 -94.42212 -215.55908 -210.89764z" fill-rule="nonzero"></path><path fill="#073763" d="m263.70078 0l90.48819 0l0 607.0866l-90.48819 0z" fill-rule="nonzero"></path><path stroke="#000000" stroke-width="2.0" stroke-linejoin="round" stroke-linecap="butt" d="m263.70078 0l90.48819 0l0 607.0866l-90.48819 0z" fill-rule="nonzero"></path><path fill="#073763" d="m623.82153 267.34122l0 90.48819l-624.59845 0l0 -90.48819z" fill-rule="nonzero"></path><path stroke="#000000" stroke-width="2.0" stroke-linejoin="round" stroke-linecap="butt" d="m623.82153 267.34122l0 90.48819l-624.59845 0l0 -90.48819z" fill-rule="nonzero"></path></g></svg>

