<?xml version="1.0" standalone="yes"?>

<svg version="1.1" viewBox="0.0 0.0 623.0 607.0" fill="none" stroke="none" stroke-linecap="square" stroke-miterlimit="10" xmlns="http://www.w3.org/2000/svg" xmlns:xlink="http://www.w3.org/1999/xlink"><clipPath id="p.0"><path d="m0 0l623.0 0l0 607.0l-623.0 0l0 -607.0z" clip-rule="nonzero"></path></clipPath><g clip-path="url(#p.0)"><path fill="#000000" fill-opacity="0.0" d="m0 0l623.6903 0l0 607.084l-623.6903 0z" fill-rule="nonzero"></path><path fill="#073763" d="m85.2336 227.64828l0 0c0 -125.89482 105.32237 -227.95274 235.2441 -227.95274l0 0c62.390625 0 122.22589 24.016382 166.34271 66.765816c44.11679 42.749428 68.9014 100.73011 68.9014 161.18692l0 0c0 125.89484 -105.32239 227.95276 -235.24411 227.95276l0 0c-129.92172 0 -235.2441 -102.05792 -235.2441 -227.95276z" fill-rule="nonzero"></path><path stroke="#000000" stroke-width="2.0" stroke-linejoin="round" stroke-linecap="butt" d="m85.2336 227.64828l0 0c0 -125.89482 105.32237 -227.95274 235.2441 -227.95274l0 0c62.390625 0 122.22589 24.016382 166.34271 66.765816c44.11679 42.749428 68.9014 100.73011 68.9014 161.18692l0 0c0 125.89484 -105.32239 227.95276 -235.24411 227.95276l0 0c-129.92172 0 -235.2441 -102.05792 -235.2441 -227.95276z" fill-rule="nonzero"></path><path fill="#ffffff" d="m143.89502 227.64828l0 0c0 -94.63638 79.05875 -171.35432 176.58267 -171.35432l0 0c46.83264 0 91.74713 18.053349 124.86279 50.18852c33.115692 32.135162 51.71988 75.71982 51.71988 121.1658l0 0c0 94.63638 -79.05875 171.35434 -176.58267 171.35434l0 0c-97.523926 0 -176.58267 -76.71796 -176.58267 -171.35434z" fill-rule="nonzero"></path><path stroke="#000000" stroke-width="2.0" stroke-linejoin="round" stroke-linecap="butt" d="m143.89502 227.64828l0 0c0 -94.63638 79.05875 -171.35432 176.58267 -171.35432l0 0c46.83264 0 91.74713 18.053349 124.86279 50.18852c33.115692 32.135162 51.71988 75.71982 51.71988 121.1658l0 0c0 94.63638 -79.05875 171.35434 -176.58267 171.35434l0 0c-97.523926 0 -176.58267 -76.71796 -176.58267 -171.35434z" fill-rule="nonzero"></path><path fill="#073763" d="m246.91864 290.70078l147.1181 0l0 315.811l-147.1181 0z" fill-rule="nonzero"></path><path stroke="#000000" stroke-width="2.0" stroke-linejoin="round" stroke-linecap="butt" d="m246.91864 290.70078l147.1181 0l0 315.811l-147.1181 0z" fill-rule="nonzero"></path><path fill="#073763" d="m212.91864 227.64828l0 0c0 -58.750916 48.155823 -106.377945 107.55905 -106.377945l0 0c28.526428 0 55.88452 11.207642 76.055756 31.15738c20.171234 19.949738 31.503296 47.007385 31.503296 75.220566l0 0c0 58.750916 -48.155823 106.37796 -107.55905 106.37796l0 0c-59.40323 0 -107.55905 -47.627045 -107.55905 -106.37796z" fill-rule="nonzero"></path><path stroke="#000000" stroke-width="2.0" stroke-linejoin="round" stroke-linecap="butt" d="m212.91864 227.64828l0 0c0 -58.750916 48.155823 -106.377945 107.55905 -106.377945l0 0c28.526428 0 55.88452 11.207642 76.055756 31.15738c20.171234 19.949738 31.503296 47.007385 31.503296 75.220566l0 0c0 58.750916 -48.155823 106.37796 -107.55905 106.37796l0 0c-59.40323 0 -107.55905 -47.627045 -107.55905 -106.37796z" fill-rule="nonzero"></path></g></svg>

