<?xml version="1.0" encoding="UTF-8" standalone="no"?>
<svg
   xmlns:dc="http://purl.org/dc/elements/1.1/"
   xmlns:cc="http://creativecommons.org/ns#"
   xmlns:rdf="http://www.w3.org/1999/02/22-rdf-syntax-ns#"
   xmlns:svg="http://www.w3.org/2000/svg"
   xmlns="http://www.w3.org/2000/svg"
   xmlns:sodipodi="http://sodipodi.sourceforge.net/DTD/sodipodi-0.dtd"
   xmlns:inkscape="http://www.inkscape.org/namespaces/inkscape"
   version="1.1"
   viewBox="0.0 0.0 623.0 607.0"
   fill="none"
   stroke="none"
   stroke-linecap="square"
   stroke-miterlimit="10"
   id="svg3101"
   inkscape:version="0.48.2 r9819"
   width="100%"
   height="100%"
   sodipodi:docname="Connection.svg">
  <metadata
     id="metadata3130">
    <rdf:RDF>
      <cc:Work
         rdf:about="">
        <dc:format>image/svg+xml</dc:format>
        <dc:type
           rdf:resource="http://purl.org/dc/dcmitype/StillImage" />
        <dc:title></dc:title>
      </cc:Work>
    </rdf:RDF>
  </metadata>
  <defs
     id="defs3128" />
  <sodipodi:namedview
     pagecolor="#ffffff"
     bordercolor="#666666"
     borderopacity="1"
     objecttolerance="10"
     gridtolerance="10"
     guidetolerance="10"
     inkscape:pageopacity="0"
     inkscape:pageshadow="2"
     inkscape:window-width="1072"
     inkscape:window-height="815"
     id="namedview3126"
     showgrid="false"
     inkscape:zoom="0.82042834"
     inkscape:cx="334.30816"
     inkscape:cy="303.5"
     inkscape:window-x="0"
     inkscape:window-y="0"
     inkscape:window-maximized="0"
     inkscape:current-layer="g3106" />
  <clipPath
     id="p.0">
    <path
       d="m0 0l623.0 0l0 607.0l-623.0 0l0 -607.0z"
       clip-rule="nonzero"
       id="path3104" />
  </clipPath>
  <g
     clip-path="url(#p.0)"
     id="g3106">
    <path
       fill="#000000"
       fill-opacity="0.0"
       d="m0 0l623.6903 0l0 607.084l-623.6903 0z"
       fill-rule="nonzero"
       id="path3108" />
    <path
       fill="#ffffff"
       d="m143.89502 227.64828l0 0c0 -94.63638 79.05875 -171.35432 176.58267 -171.35432l0 0c46.83264 0 91.74713 18.053349 124.86279 50.18852c33.115692 32.135162 51.71988 75.71982 51.71988 121.1658l0 0c0 94.63638 -79.05875 171.35434 -176.58267 171.35434l0 0c-97.523926 0 -176.58267 -76.71796 -176.58267 -171.35434z"
       fill-rule="nonzero"
       id="path3114" />
    <path
       fill="#073763"
       d="m246.91864 290.70078l147.1181 0l0 315.811l-147.1181 0z"
       fill-rule="nonzero"
       id="path3118" />
    <path
       stroke="#000000"
       stroke-width="2.0"
       stroke-linejoin="round"
       stroke-linecap="butt"
       d="m246.91864 290.70078l147.1181 0l0 315.811l-147.1181 0z"
       fill-rule="nonzero"
       id="path3120" />
    <path
       fill="#073763"
       d="m212.91864 227.64828l0 0c0 -58.750916 48.155823 -106.377945 107.55905 -106.377945l0 0c28.526428 0 55.88452 11.207642 76.055756 31.15738c20.171234 19.949738 31.503296 47.007385 31.503296 75.220566l0 0c0 58.750916 -48.155823 106.37796 -107.55905 106.37796l0 0c-59.40323 0 -107.55905 -47.627045 -107.55905 -106.37796z"
       fill-rule="nonzero"
       id="path3122" />
    <path
       stroke="#000000"
       stroke-width="2.0"
       stroke-linejoin="round"
       stroke-linecap="butt"
       d="m212.91864 227.64828l0 0c0 -58.750916 48.155823 -106.377945 107.55905 -106.377945l0 0c28.526428 0 55.88452 11.207642 76.055756 31.15738c20.171234 19.949738 31.503296 47.007385 31.503296 75.220566l0 0c0 58.750916 -48.155823 106.37796 -107.55905 106.37796l0 0c-59.40323 0 -107.55905 -47.627045 -107.55905 -106.37796z"
       fill-rule="nonzero"
       id="path3124" />
  </g>
</svg>
