<?xml version="1.0" standalone="yes"?>

<svg version="1.1" viewBox="0.0 0.0 623.0 607.0" fill="none" stroke="none" stroke-linecap="square" stroke-miterlimit="10" xmlns="http://www.w3.org/2000/svg" xmlns:xlink="http://www.w3.org/1999/xlink"><clipPath id="p.0"><path d="m0 0l623.0 0l0 607.0l-623.0 0l0 -607.0z" clip-rule="nonzero"></path></clipPath><g clip-path="url(#p.0)"><path fill="#000000" fill-opacity="0.0" d="m0 0l623.6903 0l0 607.084l-623.6903 0z" fill-rule="nonzero"></path><path fill="#1c4587" d="m38.362206 577.5906l18.865383 -199.62207l130.71017 0l18.865387 199.62207z" fill-rule="nonzero"></path><path stroke="#1c4587" stroke-width="8.0" stroke-linejoin="round" stroke-linecap="butt" d="m38.362206 577.5906l18.865383 -199.62207l130.71017 0l18.865387 199.62207z" fill-rule="nonzero"></path><path fill="#1c4587" d="m16.33071 271.60104l0 0c0 -59.49019 47.570625 -107.71652 106.25197 -107.71652l0 0c28.179771 0 55.205376 11.348663 75.13149 31.549438c19.926102 20.20076 31.120483 47.598892 31.120483 76.16708l0 0c0 59.490204 -47.570633 107.71655 -106.251976 107.71655l0 0c-58.681343 0 -106.25197 -48.22635 -106.25197 -107.71655z" fill-rule="nonzero"></path><path stroke="#1c4587" stroke-width="8.0" stroke-linejoin="round" stroke-linecap="butt" d="m16.33071 271.60104l0 0c0 -59.49019 47.570625 -107.71652 106.25197 -107.71652l0 0c28.179771 0 55.205376 11.348663 75.13149 31.549438c19.926102 20.20076 31.120483 47.598892 31.120483 76.16708l0 0c0 59.490204 -47.570633 107.71655 -106.251976 107.71655l0 0c-58.681343 0 -106.25197 -48.22635 -106.25197 -107.71655z" fill-rule="nonzero"></path><path fill="#1c4587" d="m410.74014 575.67194l29.295502 -196.126l117.094055 0l29.295471 196.126z" fill-rule="nonzero"></path><path stroke="#1c4587" stroke-width="8.0" stroke-linejoin="round" stroke-linecap="butt" d="m410.74014 575.67194l29.295502 -196.126l117.094055 0l29.295471 196.126z" fill-rule="nonzero"></path><path fill="#1c4587" d="m392.33072 271.60104l0 0c0 -59.49019 47.570618 -107.71652 106.25195 -107.71652l0 0c28.17978 0 55.205414 11.348663 75.1315 31.549438c19.926086 20.20076 31.120483 47.598892 31.120483 76.16708l0 0c0 59.490204 -47.570618 107.71655 -106.25198 107.71655l0 0c-58.681335 0 -106.25195 -48.22635 -106.25195 -107.71655z" fill-rule="nonzero"></path><path stroke="#1c4587" stroke-width="8.0" stroke-linejoin="round" stroke-linecap="butt" d="m392.33072 271.60104l0 0c0 -59.49019 47.570618 -107.71652 106.25195 -107.71652l0 0c28.17978 0 55.205414 11.348663 75.1315 31.549438c19.926086 20.20076 31.120483 47.598892 31.120483 76.16708l0 0c0 59.490204 -47.570618 107.71655 -106.25198 107.71655l0 0c-58.681335 0 -106.25195 -48.22635 -106.25195 -107.71655z" fill-rule="nonzero"></path><path fill="#1c4587" d="m222.75853 437.9265l21.826218 -199.62206l134.52078 0l21.826233 199.62206z" fill-rule="nonzero"></path><path stroke="#1c4587" stroke-width="8.0" stroke-linejoin="round" stroke-linecap="butt" d="m222.75853 437.9265l21.826218 -199.62206l134.52078 0l21.826233 199.62206z" fill-rule="nonzero"></path><path fill="#1c4587" d="m205.59317 127.01837l0 0c0 -59.490196 47.570633 -107.71654 106.25198 -107.71654l0 0c28.17978 0 55.205383 11.348673 75.13147 31.549442c19.926117 20.200768 31.120483 47.598892 31.120483 76.16709l0 0c0 59.490204 -47.570618 107.71654 -106.25195 107.71654l0 0c-58.68135 0 -106.25198 -48.226334 -106.25198 -107.71654z" fill-rule="nonzero"></path><path stroke="#1c4587" stroke-width="8.0" stroke-linejoin="round" stroke-linecap="butt" d="m205.59317 127.01837l0 0c0 -59.490196 47.570633 -107.71654 106.25198 -107.71654l0 0c28.17978 0 55.205383 11.348673 75.13147 31.549442c19.926117 20.200768 31.120483 47.598892 31.120483 76.16709l0 0c0 59.490204 -47.570618 107.71654 -106.25195 107.71654l0 0c-58.68135 0 -106.25198 -48.226334 -106.25198 -107.71654z" fill-rule="nonzero"></path></g></svg>

