<?xml version="1.0" standalone="yes"?>

<svg version="1.1" viewBox="0.0 0.0 623.0 607.0" fill="none" stroke="none" stroke-linecap="square" stroke-miterlimit="10" xmlns="http://www.w3.org/2000/svg" xmlns:xlink="http://www.w3.org/1999/xlink"><clipPath id="p.0"><path d="m0 0l623.0 0l0 607.0l-623.0 0l0 -607.0z" clip-rule="nonzero"></path></clipPath><g clip-path="url(#p.0)"><path fill="#000000" fill-opacity="0.0" d="m0 0l623.6903 0l0 607.084l-623.6903 0z" fill-rule="nonzero"></path><path fill="#000000" fill-opacity="0.0" d="m352.5748 154.69029l0.58529663 -84.05775l-306.75327 -48.742783l-2.041996 542.58264l308.20996 -61.293945l-0.7585144 -61.677155" fill-rule="nonzero"></path><path stroke="#000000" stroke-width="24.0" stroke-linejoin="round" stroke-linecap="butt" d="m352.5748 154.69029l0.58529663 -84.05775l-306.75327 -48.742783l-2.041996 542.58264l308.20996 -61.293945l-0.7585144 -61.677155" fill-rule="nonzero"></path><path fill="#000000" d="m358.10663 166.68504l0 0c-34.326263 0 -62.1532 59.457993 -62.1532 132.80315c0 73.34515 27.826935 132.80313 62.1532 132.80313l-162.90617 0c-34.326263 0 -62.1532 -59.457977 -62.1532 -132.80313c0 -73.34515 27.826935 -132.80315 62.1532 -132.80315z" fill-rule="nonzero"></path><path fill="#666666" d="m358.10663 166.68504l0 0c34.326263 0 62.15323 59.457993 62.15323 132.80315c0 73.34515 -27.826965 132.80313 -62.15323 132.80313l0 0c-34.326263 0 -62.1532 -59.457977 -62.1532 -132.80313c0 -73.34515 27.826935 -132.80315 62.1532 -132.80315z" fill-rule="nonzero"></path><path fill="#000000" fill-opacity="0.0" d="m358.10663 432.29132l0 0c-34.326263 0 -62.1532 -59.457977 -62.1532 -132.80313c0 -73.34515 27.826935 -132.80315 62.1532 -132.80315l0 0c34.326263 0 62.15323 59.457993 62.15323 132.80315c0 73.34515 -27.826965 132.80313 -62.15323 132.80313l-162.90617 0c-34.326263 0 -62.1532 -59.457977 -62.1532 -132.80313c0 -73.34515 27.826935 -132.80315 62.1532 -132.80315l162.90617 0" fill-rule="nonzero"></path><path stroke="#000000" stroke-width="24.0" stroke-linejoin="round" stroke-linecap="butt" d="m358.10663 432.29132l0 0c-34.326263 0 -62.1532 -59.457977 -62.1532 -132.80313c0 -73.34515 27.826935 -132.80315 62.1532 -132.80315l0 0c34.326263 0 62.15323 59.457993 62.15323 132.80315c0 73.34515 -27.826965 132.80313 -62.15323 132.80313l-162.90617 0c-34.326263 0 -62.1532 -59.457977 -62.1532 -132.80313c0 -73.34515 27.826935 -132.80315 62.1532 -132.80315l162.90617 0" fill-rule="nonzero"></path></g></svg>

