<?xml version="1.0" standalone="yes"?>

<svg version="1.1" viewBox="0.0 0.0 623.0 607.0" fill="none" stroke="none" stroke-linecap="square" stroke-miterlimit="10" xmlns="http://www.w3.org/2000/svg" xmlns:xlink="http://www.w3.org/1999/xlink"><clipPath id="p.0"><path d="m0 0l623.0 0l0 607.0l-623.0 0l0 -607.0z" clip-rule="nonzero"></path></clipPath><g clip-path="url(#p.0)"><path fill="#000000" fill-opacity="0.0" d="m0 0l623.6903 0l0 607.084l-623.6903 0z" fill-rule="nonzero"></path><path fill="#000000" fill-opacity="0.0" d="m61.29134 293.62466l0 0c0 -141.53275 113.42355 -256.2677 253.33858 -256.2677l0 0c67.189575 0 131.62726 26.999557 179.13745 75.059074c47.510223 48.059525 74.20114 113.24222 74.20114 181.20863l0 0c0 141.53278 -113.42355 256.26773 -253.3386 256.26773l0 0c-139.91502 0 -253.33858 -114.734955 -253.33858 -256.26773z" fill-rule="nonzero"></path><path stroke="#000000" stroke-width="24.0" stroke-linejoin="round" stroke-linecap="butt" d="m61.29134 293.62466l0 0c0 -141.53275 113.42355 -256.2677 253.33858 -256.2677l0 0c67.189575 0 131.62726 26.999557 179.13745 75.059074c47.510223 48.059525 74.20114 113.24222 74.20114 181.20863l0 0c0 141.53278 -113.42355 256.26773 -253.3386 256.26773l0 0c-139.91502 0 -253.33858 -114.734955 -253.33858 -256.26773z" fill-rule="nonzero"></path><path fill="#000000" d="m104.7769 295.65353l0 0c0 -118.22371 93.815735 -214.06299 209.54332 -214.06299l0 0c55.57434 0 108.8725 22.553001 148.1695 62.697594c39.296997 40.144608 61.37381 94.59236 61.37381 151.36539l0 0c0 118.223755 -93.815735 214.06302 -209.5433 214.06302l0 0c-115.727585 0 -209.54332 -95.839264 -209.54332 -214.06302z" fill-rule="nonzero"></path><path stroke="#000000" stroke-width="2.0" stroke-linejoin="round" stroke-linecap="butt" d="m104.7769 295.65353l0 0c0 -118.22371 93.815735 -214.06299 209.54332 -214.06299l0 0c55.57434 0 108.8725 22.553001 148.1695 62.697594c39.296997 40.144608 61.37381 94.59236 61.37381 151.36539l0 0c0 118.223755 -93.815735 214.06302 -209.5433 214.06302l0 0c-115.727585 0 -209.54332 -95.839264 -209.54332 -214.06302z" fill-rule="nonzero"></path></g></svg>

