<?xml version="1.0" standalone="yes"?>

<svg version="1.1" viewBox="0.0 0.0 623.0 607.0" fill="none" stroke="none" stroke-linecap="square" stroke-miterlimit="10" xmlns="http://www.w3.org/2000/svg" xmlns:xlink="http://www.w3.org/1999/xlink"><clipPath id="p.0"><path d="m0 0l623.0 0l0 607.0l-623.0 0l0 -607.0z" clip-rule="nonzero"></path></clipPath><g clip-path="url(#p.0)"><path fill="#000000" fill-opacity="0.0" d="m0 0l623.6903 0l0 607.084l-623.6903 0z" fill-rule="nonzero"></path><path fill="#073763" d="m63.63517 372.95538l0 0c0 -43.286957 36.39537 -78.37796 81.29134 -78.37796l0 0c21.5598 0 42.236572 8.25766 57.48166 22.95639c15.245071 14.6987 23.809677 34.63443 23.809677 55.42157l0 0c0 43.286957 -36.39537 78.37796 -81.291336 78.37796l0 0c-44.895973 0 -81.29134 -35.091003 -81.29134 -78.37796z" fill-rule="nonzero"></path><path stroke="#073763" stroke-width="2.0" stroke-linejoin="round" stroke-linecap="butt" d="m63.63517 372.95538l0 0c0 -43.286957 36.39537 -78.37796 81.29134 -78.37796l0 0c21.5598 0 42.236572 8.25766 57.48166 22.95639c15.245071 14.6987 23.809677 34.63443 23.809677 55.42157l0 0c0 43.286957 -36.39537 78.37796 -81.291336 78.37796l0 0c-44.895973 0 -81.29134 -35.091003 -81.29134 -78.37796z" fill-rule="nonzero"></path><path fill="#073763" d="m377.24146 372.95538l0 0c0 -43.286957 37.96768 -78.37796 84.80316 -78.37796l0 0c46.83548 0 84.80316 35.091003 84.80316 78.37796l0 0c0 43.286957 -37.96768 78.37796 -84.80316 78.37796l0 0c-46.83548 0 -84.80316 -35.091003 -84.80316 -78.37796z" fill-rule="nonzero"></path><path stroke="#073763" stroke-width="2.0" stroke-linejoin="round" stroke-linecap="butt" d="m377.24146 372.95538l0 0c0 -43.286957 37.96768 -78.37796 84.80316 -78.37796l0 0c46.83548 0 84.80316 35.091003 84.80316 78.37796l0 0c0 43.286957 -37.96768 78.37796 -84.80316 78.37796l0 0c-46.83548 0 -84.80316 -35.091003 -84.80316 -78.37796z" fill-rule="nonzero"></path><path fill="#073763" d="m15.160105 359.4357l593.3701 0l0 -50.81366l-190.57745 -27.262451l-107.40683 -56.03676l-293.37534 22.960632z" fill-rule="nonzero"></path><path stroke="#000000" stroke-width="2.0" stroke-linejoin="round" stroke-linecap="butt" d="m15.160105 359.4357l593.3701 0l0 -50.81366l-190.57745 -27.262451l-107.40683 -56.03676l-293.37534 22.960632z" fill-rule="nonzero"></path></g></svg>

