<?xml version="1.0" standalone="yes"?>

<svg version="1.1" viewBox="0.0 0.0 623.0 607.0" fill="none" stroke="none" stroke-linecap="square" stroke-miterlimit="10" xmlns="http://www.w3.org/2000/svg" xmlns:xlink="http://www.w3.org/1999/xlink"><clipPath id="p.0"><path d="m0 0l623.0 0l0 607.0l-623.0 0l0 -607.0z" clip-rule="nonzero"></path></clipPath><g clip-path="url(#p.0)"><path fill="#000000" fill-opacity="0.0" d="m0 0l623.6903 0l0 607.084l-623.6903 0z" fill-rule="nonzero"></path><path fill="#000000" d="m178.17323 138.05511l0 0c0 -62.864784 52.92206 -113.82677 118.20473 -113.82677l0 0c31.349823 0 61.41565 11.99243 83.58334 33.33909c22.167694 21.346664 34.62137 50.29895 34.62137 80.48768l0 0c0 62.86479 -52.92206 113.82678 -118.20471 113.82678l0 0c-65.28267 0 -118.20473 -50.96199 -118.20473 -113.82678z" fill-rule="nonzero"></path><path stroke="#000000" stroke-width="16.0" stroke-linejoin="round" stroke-linecap="butt" d="m178.17323 138.05511l0 0c0 -62.864784 52.92206 -113.82677 118.20473 -113.82677l0 0c31.349823 0 61.41565 11.99243 83.58334 33.33909c22.167694 21.346664 34.62137 50.29895 34.62137 80.48768l0 0c0 62.86479 -52.92206 113.82678 -118.20471 113.82678l0 0c-65.28267 0 -118.20473 -50.96199 -118.20473 -113.82678z" fill-rule="nonzero"></path><path fill="#000000" fill-opacity="0.0" d="m282.8714 251.8819l-0.9133911 351.1181" fill-rule="nonzero"></path><path stroke="#000000" stroke-width="24.0" stroke-linejoin="round" stroke-linecap="butt" d="m282.8714 251.8819l-0.9133911 351.1181" fill-rule="nonzero"></path><path fill="#000000" fill-opacity="0.0" d="m303.54593 231.45145l-0.9133911 351.11807" fill-rule="nonzero"></path><path stroke="#000000" stroke-width="24.0" stroke-linejoin="round" stroke-linecap="butt" d="m303.54593 231.45145l-0.9133911 351.11807" fill-rule="nonzero"></path></g></svg>

