<?xml version="1.0" standalone="yes"?>

<svg version="1.1" viewBox="0.0 0.0 623.0 607.0" fill="none" stroke="none" stroke-linecap="square" stroke-miterlimit="10" xmlns="http://www.w3.org/2000/svg" xmlns:xlink="http://www.w3.org/1999/xlink"><clipPath id="p.0"><path d="m0 0l623.0 0l0 607.0l-623.0 0l0 -607.0z" clip-rule="nonzero"></path></clipPath><g clip-path="url(#p.0)"><path fill="#000000" fill-opacity="0.0" d="m0 0l623.6903 0l0 607.084l-623.6903 0z" fill-rule="nonzero"></path><path fill="#000000" fill-opacity="0.0" d="m352.5748 154.69029l0.58529663 -84.05775l-306.75327 -48.742783l-2.041996 542.58264l308.20996 -61.293945l-0.7585144 -61.677155" fill-rule="nonzero"></path><path stroke="#000000" stroke-width="24.0" stroke-linejoin="round" stroke-linecap="butt" d="m352.5748 154.69029l0.58529663 -84.05775l-306.75327 -48.742783l-2.041996 542.58264l308.20996 -61.293945l-0.7585144 -61.677155" fill-rule="nonzero"></path><path fill="#000000" fill-opacity="0.0" d="m371.9439 166.68504l0 0c-34.326263 0 -62.1532 59.457993 -62.1532 132.80315c0 73.34515 27.826935 132.80313 62.1532 132.80313l-162.90619 0c-34.326263 0 -62.1532 -59.457977 -62.1532 -132.80313c0 -73.34515 27.826935 -132.80315 62.1532 -132.80315z" fill-rule="nonzero"></path><path fill="#000000" fill-opacity="0.0" d="m371.9439 166.68504l0 0c34.326263 0 62.1532 59.457993 62.1532 132.80315c0 73.34515 -27.826935 132.80313 -62.1532 132.80313l0 0c-34.326263 0 -62.1532 -59.457977 -62.1532 -132.80313c0 -73.34515 27.826935 -132.80315 62.1532 -132.80315z" fill-rule="nonzero"></path><path fill="#ffffff" fill-opacity="0.4" d="m371.9439 166.68504l0 0c34.326263 0 62.1532 59.457993 62.1532 132.80315c0 73.34515 -27.826935 132.80313 -62.1532 132.80313l0 0c-34.326263 0 -62.1532 -59.457977 -62.1532 -132.80313c0 -73.34515 27.826935 -132.80315 62.1532 -132.80315z" fill-rule="nonzero"></path><path fill="#000000" fill-opacity="0.0" d="m371.9439 432.29132l0 0c-34.326263 0 -62.1532 -59.457977 -62.1532 -132.80313c0 -73.34515 27.826935 -132.80315 62.1532 -132.80315l0 0c34.326263 0 62.1532 59.457993 62.1532 132.80315c0 73.34515 -27.826935 132.80313 -62.1532 132.80313l-162.90619 0c-34.326263 0 -62.1532 -59.457977 -62.1532 -132.80313c0 -73.34515 27.826935 -132.80315 62.1532 -132.80315l162.90619 0" fill-rule="nonzero"></path><path stroke="#000000" stroke-width="24.0" stroke-linejoin="round" stroke-linecap="butt" d="m371.9439 432.29132l0 0c-34.326263 0 -62.1532 -59.457977 -62.1532 -132.80313c0 -73.34515 27.826935 -132.80315 62.1532 -132.80315l0 0c34.326263 0 62.1532 59.457993 62.1532 132.80315c0 73.34515 -27.826935 132.80313 -62.1532 132.80313l-162.90619 0c-34.326263 0 -62.1532 -59.457977 -62.1532 -132.80313c0 -73.34515 27.826935 -132.80315 62.1532 -132.80315l162.90619 0" fill-rule="nonzero"></path><path fill="#000000" d="m322.32446 172.05089l0.47250366 -71.440674l-247.6419 -41.426487l-1.6485062 461.14105l248.8179 -52.09375l-0.6123657 -52.419434" fill-rule="nonzero"></path><path fill="#000000" d="m303.54068 182.41995l0 0c0 -11.123978 6.662842 -20.141739 14.881897 -20.141739l0 0c3.94693 0 7.7321777 2.1220703 10.523071 5.8993835c2.7908936 3.777298 4.3588257 8.900436 4.3588257 14.242355l0 0c0 11.123962 -6.6628723 20.141724 -14.881897 20.141724l0 0c-8.219055 0 -14.881897 -9.017761 -14.881897 -20.141724z" fill-rule="nonzero"></path><path stroke="#000000" stroke-width="2.0" stroke-linejoin="round" stroke-linecap="butt" d="m303.54068 182.41995l0 0c0 -11.123978 6.662842 -20.141739 14.881897 -20.141739l0 0c3.94693 0 7.7321777 2.1220703 10.523071 5.8993835c2.7908936 3.777298 4.3588257 8.900436 4.3588257 14.242355l0 0c0 11.123962 -6.6628723 20.141724 -14.881897 20.141724l0 0c-8.219055 0 -14.881897 -9.017761 -14.881897 -20.141724z" fill-rule="nonzero"></path><path fill="#000000" d="m303.54068 412.1496l0 0c0 -11.123962 6.662842 -20.141724 14.881897 -20.141724l0 0c3.94693 0 7.7321777 2.1220703 10.523071 5.8993835c2.7908936 3.7773132 4.3588257 8.900421 4.3588257 14.24234l0 0c0 11.123993 -6.6628723 20.141754 -14.881897 20.141754l0 0c-8.219055 0 -14.881897 -9.017761 -14.881897 -20.141754z" fill-rule="nonzero"></path><path stroke="#000000" stroke-width="2.0" stroke-linejoin="round" stroke-linecap="butt" d="m303.54068 412.1496l0 0c0 -11.123962 6.662842 -20.141724 14.881897 -20.141724l0 0c3.94693 0 7.7321777 2.1220703 10.523071 5.8993835c2.7908936 3.7773132 4.3588257 8.900421 4.3588257 14.24234l0 0c0 11.123993 -6.6628723 20.141754 -14.881897 20.141754l0 0c-8.219055 0 -14.881897 -9.017761 -14.881897 -20.141754z" fill-rule="nonzero"></path></g></svg>

