<?xml version="1.0" encoding="UTF-8" standalone="no"?>
<!-- Created with Inkscape (http://www.inkscape.org/) -->

<svg
   xmlns:dc="http://purl.org/dc/elements/1.1/"
   xmlns:cc="http://creativecommons.org/ns#"
   xmlns:rdf="http://www.w3.org/1999/02/22-rdf-syntax-ns#"
   xmlns:svg="http://www.w3.org/2000/svg"
   xmlns="http://www.w3.org/2000/svg"
   xmlns:sodipodi="http://sodipodi.sourceforge.net/DTD/sodipodi-0.dtd"
   xmlns:inkscape="http://www.inkscape.org/namespaces/inkscape"
   width="700"
   height="700"
   id="svg2"
   version="1.1"
   inkscape:version="0.48.2 r9819"
   sodipodi:docname="ConnectionOff.svg">
  <defs
     id="defs4" />
  <sodipodi:namedview
     id="base"
     pagecolor="#ffffff"
     bordercolor="#666666"
     borderopacity="1.0"
     inkscape:pageopacity="0"
     inkscape:pageshadow="2"
     inkscape:zoom="0.35355339"
     inkscape:cx="350"
     inkscape:cy="-92.548341"
     inkscape:document-units="px"
     inkscape:current-layer="layer1"
     showgrid="true"
     inkscape:window-width="1031"
     inkscape:window-height="822"
     inkscape:window-x="224"
     inkscape:window-y="66"
     inkscape:window-maximized="0">
    <inkscape:grid
       type="xygrid"
       id="grid2987"
       empspacing="5"
       visible="true"
       enabled="true"
       snapvisiblegridlinesonly="true"
       spacingx="10px"
       spacingy="10px" />
  </sodipodi:namedview>
  <metadata
     id="metadata7">
    <rdf:RDF>
      <cc:Work
         rdf:about="">
        <dc:format>image/svg+xml</dc:format>
        <dc:type
           rdf:resource="http://purl.org/dc/dcmitype/StillImage" />
        <dc:title />
      </cc:Work>
    </rdf:RDF>
  </metadata>
  <g
     inkscape:label="Ebene 1"
     inkscape:groupmode="layer"
     id="layer1"
     transform="translate(0,-352.36218)">
    <path
       sodipodi:type="arc"
       style="fill:#ffffff;fill-opacity:1;stroke:none"
       id="path3178"
       sodipodi:cx="349.5"
       sodipodi:cy="538"
       sodipodi:rx="349.5"
       sodipodi:ry="238"
       d="m 699,538 a 349.5,238 0 1 1 -699,0 349.5,238 0 1 1 699,0 z"
       transform="matrix(1.8597997,0,0,2.7310924,-300,-466.96553)" />
    <path
       sodipodi:type="arc"
       style="fill:#ffffff;fill-opacity:1;stroke:none"
       id="path3176"
       sodipodi:cx="350"
       sodipodi:cy="640"
       sodipodi:rx="300"
       sodipodi:ry="290"
       d="m 650,640 a 300,290 0 1 1 -600,0 300,290 0 1 1 600,0 z"
       transform="matrix(1.8333334,0,0,1.8965517,-291.66667,-211.43092)" />
    <path
       sodipodi:type="arc"
       style="fill:#0000ff;fill-opacity:1;stroke:none"
       id="path3174"
       sodipodi:cx="350"
       sodipodi:cy="645"
       sodipodi:rx="250"
       sodipodi:ry="245"
       d="m 600,645 a 250,245 0 1 1 -500,0 250,245 0 1 1 500,0 z"
       transform="matrix(1.8,0,0,1.8367347,-280,-182.33169)" />
    <path
       sodipodi:type="arc"
       style="fill:#ffffff;fill-opacity:1;stroke:none"
       id="path3172"
       sodipodi:cx="350"
       sodipodi:cy="650"
       sodipodi:rx="200"
       sodipodi:ry="200"
       d="m 550,650 a 200,200 0 1 1 -400,0 200,200 0 1 1 400,0 z"
       transform="matrix(1.75,0,0,1.75,-262.5,-135.13782)" />
    <path
       sodipodi:type="arc"
       style="fill:#0000ff;fill-opacity:1;stroke:none"
       id="path3170"
       sodipodi:cx="350"
       sodipodi:cy="650"
       sodipodi:rx="150"
       sodipodi:ry="150"
       d="m 500,650 a 150,150 0 1 1 -300,0 150,150 0 1 1 300,0 z"
       transform="matrix(1.6666666,0,0,1.6666667,-233.33332,-80.971199)" />
    <path
       sodipodi:type="arc"
       style="fill:#ffffff;fill-opacity:1;stroke:none"
       id="path3168"
       sodipodi:cx="350"
       sodipodi:cy="650"
       sodipodi:rx="100"
       sodipodi:ry="100"
       d="m 450,650 a 100,100 0 1 1 -200,0 100,100 0 1 1 200,0 z"
       transform="matrix(1.5,0,0,1.5,-175,27.36218)" />
    <path
       sodipodi:type="arc"
       style="fill:#0000ff;fill-opacity:1;stroke:none"
       id="path3157"
       sodipodi:cx="350"
       sodipodi:cy="625"
       sodipodi:rx="50"
       sodipodi:ry="45"
       d="m 400,625 c 0,24.85281 -22.38576,45 -50,45 -27.61424,0 -50,-20.14719 -50,-45 0,-24.85281 22.38576,-45 50,-45 27.61424,0 50,20.14719 50,45 z"
       transform="matrix(1,0,0,1.1111109,0,307.91786)" />
    <rect
       style="fill:#ffffff;fill-opacity:1;stroke:none"
       id="rect3023"
       width="721.13617"
       height="917.3526"
       x="305.4552"
       y="151.59027"
       transform="matrix(0.420434,0.90732312,-0.86822137,0.49617704,0,0)" />
    <rect
       style="fill:#ffffff;fill-opacity:1;stroke:none"
       id="rect3025"
       width="811.67596"
       height="718.58282"
       x="787.02167"
       y="-50.776169"
       transform="matrix(0.86236742,0.50628296,-0.41945218,0.90777743,0,0)" />
  </g>
</svg>
