<?xml version="1.0" encoding="UTF-8" standalone="no"?>
<!-- Created with Inkscape (http://www.inkscape.org/) -->

<svg
   xmlns:dc="http://purl.org/dc/elements/1.1/"
   xmlns:cc="http://creativecommons.org/ns#"
   xmlns:rdf="http://www.w3.org/1999/02/22-rdf-syntax-ns#"
   xmlns:svg="http://www.w3.org/2000/svg"
   xmlns="http://www.w3.org/2000/svg"
   xmlns:sodipodi="http://sodipodi.sourceforge.net/DTD/sodipodi-0.dtd"
   xmlns:inkscape="http://www.inkscape.org/namespaces/inkscape"
   width="700"
   height="700"
   id="svg2"
   version="1.1"
   inkscape:version="0.48.2 r9819"
   sodipodi:docname="ConnectionOn.svg">
  <defs
     id="defs4" />
  <sodipodi:namedview
     id="base"
     pagecolor="#ffffff"
     bordercolor="#666666"
     borderopacity="1.0"
     inkscape:pageopacity="0"
     inkscape:pageshadow="2"
     inkscape:zoom="0.35355339"
     inkscape:cx="350"
     inkscape:cy="-130.70348"
     inkscape:document-units="px"
     inkscape:current-layer="layer1"
     showgrid="true"
     inkscape:window-width="1031"
     inkscape:window-height="822"
     inkscape:window-x="0"
     inkscape:window-y="0"
     inkscape:window-maximized="0">
    <inkscape:grid
       type="xygrid"
       id="grid2987"
       empspacing="5"
       visible="true"
       enabled="true"
       snapvisiblegridlinesonly="true"
       spacingx="10px"
       spacingy="10px" />
  </sodipodi:namedview>
  <metadata
     id="metadata7">
    <rdf:RDF>
      <cc:Work
         rdf:about="">
        <dc:format>image/svg+xml</dc:format>
        <dc:type
           rdf:resource="http://purl.org/dc/dcmitype/StillImage" />
        <dc:title />
      </cc:Work>
    </rdf:RDF>
  </metadata>
  <g
     inkscape:label="Ebene 1"
     inkscape:groupmode="layer"
     id="layer1"
     transform="translate(0,-352.36218)">
    <path
       sodipodi:type="arc"
       style="fill:#0000ff;fill-opacity:1;stroke:none"
       id="path3178"
       sodipodi:cx="349.5"
       sodipodi:cy="538"
       sodipodi:rx="349.5"
       sodipodi:ry="238"
       d="M 699,538 C 699,669.44377 542.52352,776 349.5,776 156.47648,776 0,669.44377 0,538 0,406.55623 156.47648,300 349.5,300 542.52352,300 699,406.55623 699,538 z"
       transform="matrix(1.8597997,0,0,2.7310925,-300,-466.96557)" />
    <path
       sodipodi:type="arc"
       style="fill:#ffffff;fill-opacity:1;stroke:none"
       id="path3176"
       sodipodi:cx="350"
       sodipodi:cy="640"
       sodipodi:rx="300"
       sodipodi:ry="290"
       d="M 650,640 C 650,800.16258 515.68542,930 350,930 184.31458,930 50,800.16258 50,640 50,479.83742 184.31458,350 350,350 c 165.68542,0 300,129.83742 300,290 z"
       transform="matrix(1.8333334,0,0,1.8965518,-291.66667,-211.43097)" />
    <path
       sodipodi:type="arc"
       style="fill:#0000ff;fill-opacity:1;stroke:none"
       id="path3174"
       sodipodi:cx="350"
       sodipodi:cy="645"
       sodipodi:rx="250"
       sodipodi:ry="245"
       d="M 600,645 C 600,780.30976 488.07119,890 350,890 211.92881,890 100,780.30976 100,645 100,509.69024 211.92881,400 350,400 c 138.07119,0 250,109.69024 250,245 z"
       transform="matrix(1.8,0,0,1.8367347,-280,-182.33166)" />
    <path
       sodipodi:type="arc"
       style="fill:#ffffff;fill-opacity:1;stroke:none"
       id="path3172"
       sodipodi:cx="350"
       sodipodi:cy="650"
       sodipodi:rx="200"
       sodipodi:ry="200"
       d="m 550,650 c 0,110.45695 -89.54305,200 -200,200 -110.45695,0 -200,-89.54305 -200,-200 0,-110.45695 89.54305,-200 200,-200 110.45695,0 200,89.54305 200,200 z"
       transform="matrix(1.75,0,0,1.75,-262.5,-135.13782)" />
    <path
       sodipodi:type="arc"
       style="fill:#0000ff;fill-opacity:1;stroke:none"
       id="path3170"
       sodipodi:cx="350"
       sodipodi:cy="650"
       sodipodi:rx="150"
       sodipodi:ry="150"
       d="m 500,650 c 0,82.84271 -67.15729,150 -150,150 -82.84271,0 -150,-67.15729 -150,-150 0,-82.84271 67.15729,-150 150,-150 82.84271,0 150,67.15729 150,150 z"
       transform="matrix(1.6666666,0,0,1.6666667,-233.33332,-80.971141)" />
    <path
       sodipodi:type="arc"
       style="fill:#ffffff;fill-opacity:1;stroke:none"
       id="path3168"
       sodipodi:cx="350"
       sodipodi:cy="650"
       sodipodi:rx="100"
       sodipodi:ry="100"
       d="m 450,650 c 0,55.22847 -44.77153,100 -100,100 -55.22847,0 -100,-44.77153 -100,-100 0,-55.22847 44.77153,-100 100,-100 55.22847,0 100,44.77153 100,100 z"
       transform="matrix(1.5,0,0,1.5,-175,27.36218)" />
    <path
       sodipodi:type="arc"
       style="fill:#0000ff;fill-opacity:1;stroke:none"
       id="path3157"
       sodipodi:cx="350"
       sodipodi:cy="625"
       sodipodi:rx="50"
       sodipodi:ry="45"
       d="m 400,625 c 0,24.85281 -22.38576,45 -50,45 -27.61424,0 -50,-20.14719 -50,-45 0,-24.85281 22.38576,-45 50,-45 27.61424,0 50,20.14719 50,45 z"
       transform="matrix(1,0,0,1.1111109,0,307.91786)" />
    <rect
       style="fill:#ffffff;fill-opacity:1;stroke:none"
       id="rect2990"
       width="708.95074"
       height="764.57306"
       x="-619.81464"
       y="791.90668"
       transform="matrix(0.41729118,-0.90877284,0.83697275,0.54724457,0,0)"
       ry="0" />
    <rect
       style="fill:#ffffff;fill-opacity:1;stroke:none"
       id="rect2992"
       width="716.6012"
       height="791.2373"
       x="302.79541"
       y="151.59389"
       transform="matrix(0.42791534,0.90381882,-0.8547231,0.51908421,0,0)" />
  </g>
</svg>
