<?xml version="1.0" encoding="UTF-8" standalone="no"?>
<!-- Created with Inkscape (http://www.inkscape.org/) -->

<svg
   xmlns:dc="http://purl.org/dc/elements/1.1/"
   xmlns:cc="http://creativecommons.org/ns#"
   xmlns:rdf="http://www.w3.org/1999/02/22-rdf-syntax-ns#"
   xmlns:svg="http://www.w3.org/2000/svg"
   xmlns="http://www.w3.org/2000/svg"
   xmlns:sodipodi="http://sodipodi.sourceforge.net/DTD/sodipodi-0.dtd"
   xmlns:inkscape="http://www.inkscape.org/namespaces/inkscape"
   width="700"
   height="700"
   id="svg2"
   version="1.1"
   inkscape:version="0.91 r13725"
   sodipodi:docname="iBeaconCold.svg">
  <defs
     id="defs4" />
  <sodipodi:namedview
     id="base"
     pagecolor="#ffffff"
     bordercolor="#666666"
     borderopacity="1.0"
     inkscape:pageopacity="0"
     inkscape:pageshadow="2"
     inkscape:zoom="1.1272277"
     inkscape:cx="136.20113"
     inkscape:cy="520"
     inkscape:document-units="px"
     inkscape:current-layer="layer1"
     showgrid="true"
     inkscape:window-width="1099"
     inkscape:window-height="765"
     inkscape:window-x="0"
     inkscape:window-y="0"
     inkscape:window-maximized="0">
    <inkscape:grid
       type="xygrid"
       id="grid3004"
       empspacing="5"
       visible="true"
       enabled="true"
       snapvisiblegridlinesonly="true"
       spacingx="10px"
       spacingy="10px" />
  </sodipodi:namedview>
  <metadata
     id="metadata7">
    <rdf:RDF>
      <cc:Work
         rdf:about="">
        <dc:format>image/svg+xml</dc:format>
        <dc:type
           rdf:resource="http://purl.org/dc/dcmitype/StillImage" />
        <dc:title />
      </cc:Work>
    </rdf:RDF>
  </metadata>
  <g
     inkscape:label="Ebene 1"
     inkscape:groupmode="layer"
     id="layer1"
     transform="translate(0,-352.36218)">
    <path
       sodipodi:type="arc"
       style="fill:#009fff;fill-opacity:1;stroke:none"
       id="path3021"
       sodipodi:cx="500"
       sodipodi:cy="500"
       sodipodi:rx="350"
       sodipodi:ry="350"
       d="M 850,500 A 350,350 0 0 1 500,850 350,350 0 0 1 150,500 350,350 0 0 1 500,150 350,350 0 0 1 850,500 Z"
       transform="translate(-150,202.36218)" />
    <path
       sodipodi:type="arc"
       style="fill:#ffffff;fill-opacity:1;stroke:none"
       id="path3019"
       sodipodi:cx="500"
       sodipodi:cy="500"
       sodipodi:rx="300"
       sodipodi:ry="300"
       d="M 800,500 A 300,300 0 0 1 500,800 300,300 0 0 1 200,500 300,300 0 0 1 500,200 300,300 0 0 1 800,500 Z"
       transform="translate(-150,202.36218)" />
    <path
       sodipodi:type="arc"
       style="fill:#009fff;fill-opacity:1;stroke:none"
       id="path3017"
       sodipodi:cx="500"
       sodipodi:cy="500"
       sodipodi:rx="250"
       sodipodi:ry="250"
       d="M 750,500 A 250,250 0 0 1 500,750 250,250 0 0 1 250,500 250,250 0 0 1 500,250 250,250 0 0 1 750,500 Z"
       transform="translate(-150,202.36218)" />
    <path
       sodipodi:type="arc"
       style="fill:#ffffff;fill-opacity:1;stroke:none"
       id="path3015"
       sodipodi:cx="525"
       sodipodi:cy="525"
       sodipodi:rx="225"
       sodipodi:ry="225"
       d="M 750,525 A 225,225 0 0 1 525,750 225,225 0 0 1 300,525 225,225 0 0 1 525,300 225,225 0 0 1 750,525 Z"
       transform="matrix(0.88888889,0,0,0.88888889,-116.66667,235.69552)" />
    <path
       sodipodi:type="arc"
       style="fill:#009fff;fill-opacity:1;stroke:none"
       id="path3010"
       sodipodi:cx="500"
       sodipodi:cy="500"
       sodipodi:rx="150"
       sodipodi:ry="150"
       d="M 650,500 A 150,150 0 0 1 500,650 150,150 0 0 1 350,500 150,150 0 0 1 500,350 150,150 0 0 1 650,500 Z"
       transform="translate(-150,202.36218)" />
    <path
       sodipodi:type="arc"
       style="fill:#ffffff;fill-opacity:1;stroke:none"
       id="path3008"
       sodipodi:cx="500"
       sodipodi:cy="500"
       sodipodi:rx="100"
       sodipodi:ry="100"
       d="M 600,500 A 100,100 0 0 1 500,600 100,100 0 0 1 400,500 100,100 0 0 1 500,400 100,100 0 0 1 600,500 Z"
       transform="translate(-150,202.36218)" />
    <path
       sodipodi:type="arc"
       style="fill:#009fff;fill-opacity:1;stroke:none"
       id="path3006"
       sodipodi:cx="500"
       sodipodi:cy="500"
       sodipodi:rx="50"
       sodipodi:ry="50"
       d="m 550,500 a 50,50 0 0 1 -50,50 50,50 0 0 1 -50,-50 50,50 0 0 1 50,-50 50,50 0 0 1 50,50 z"
       transform="translate(-150,202.36218)" />
    <rect
       style="fill:#ffffff;fill-opacity:1;stroke:none"
       id="rect3023"
       width="100"
       height="300"
       x="300"
       y="752.36218" />
  </g>
</svg>
