<?xml version="1.0" encoding="UTF-8" standalone="no"?>
<!-- Created with Inkscape (http://www.inkscape.org/) -->

<svg
   xmlns:dc="http://purl.org/dc/elements/1.1/"
   xmlns:cc="http://creativecommons.org/ns#"
   xmlns:rdf="http://www.w3.org/1999/02/22-rdf-syntax-ns#"
   xmlns:svg="http://www.w3.org/2000/svg"
   xmlns="http://www.w3.org/2000/svg"
   xmlns:sodipodi="http://sodipodi.sourceforge.net/DTD/sodipodi-0.dtd"
   xmlns:inkscape="http://www.inkscape.org/namespaces/inkscape"
   width="700"
   height="700"
   id="svg2"
   version="1.1"
   inkscape:version="0.48.2 r9819"
   sodipodi:docname="iBeaconOn.svg">
  <defs
     id="defs4" />
  <sodipodi:namedview
     id="base"
     pagecolor="#ffffff"
     bordercolor="#666666"
     borderopacity="1.0"
     inkscape:pageopacity="1"
     inkscape:pageshadow="2"
     inkscape:zoom="0.49497475"
     inkscape:cx="350"
     inkscape:cy="520"
     inkscape:document-units="px"
     inkscape:current-layer="layer1"
     showgrid="true"
     inkscape:window-width="1099"
     inkscape:window-height="765"
     inkscape:window-x="0"
     inkscape:window-y="0"
     inkscape:window-maximized="0">
    <inkscape:grid
       type="xygrid"
       id="grid3004"
       empspacing="5"
       visible="true"
       enabled="true"
       snapvisiblegridlinesonly="true"
       spacingx="10px"
       spacingy="10px" />
  </sodipodi:namedview>
  <metadata
     id="metadata7">
    <rdf:RDF>
      <cc:Work
         rdf:about="">
        <dc:format>image/svg+xml</dc:format>
        <dc:type
           rdf:resource="http://purl.org/dc/dcmitype/StillImage" />
        <dc:title />
      </cc:Work>
    </rdf:RDF>
  </metadata>
  <g
     inkscape:label="Ebene 1"
     inkscape:groupmode="layer"
     id="layer1"
     transform="translate(0,-352.36218)">
    <path
       sodipodi:type="arc"
       style="fill:#ffffff;fill-opacity:1;stroke:none"
       id="path3021"
       sodipodi:cx="500"
       sodipodi:cy="500"
       sodipodi:rx="350"
       sodipodi:ry="350"
       d="m 850,500 a 350,350 0 1 1 -700,0 350,350 0 1 1 700,0 z"
       transform="translate(-150,202.36218)" />
    <path
       sodipodi:type="arc"
       style="fill:#0000ff;fill-opacity:1;stroke:none"
       id="path3019"
       sodipodi:cx="500"
       sodipodi:cy="500"
       sodipodi:rx="300"
       sodipodi:ry="300"
       d="m 800,500 a 300,300 0 1 1 -600,0 300,300 0 1 1 600,0 z"
       transform="translate(-150,202.36218)" />
    <path
       sodipodi:type="arc"
       style="fill:#ffffff;fill-opacity:1;stroke:none"
       id="path3017"
       sodipodi:cx="500"
       sodipodi:cy="500"
       sodipodi:rx="250"
       sodipodi:ry="250"
       d="m 750,500 a 250,250 0 1 1 -500,0 250,250 0 1 1 500,0 z"
       transform="translate(-150,202.36218)" />
    <path
       sodipodi:type="arc"
       style="fill:#0000ff;fill-opacity:1;stroke:none"
       id="path3015"
       sodipodi:cx="525"
       sodipodi:cy="525"
       sodipodi:rx="225"
       sodipodi:ry="225"
       d="m 750,525 a 225,225 0 1 1 -450,0 225,225 0 1 1 450,0 z"
       transform="matrix(0.88888889,0,0,0.88888889,-116.66667,235.69551)" />
    <path
       sodipodi:type="arc"
       style="fill:#ffffff;fill-opacity:1;stroke:none"
       id="path3010"
       sodipodi:cx="500"
       sodipodi:cy="500"
       sodipodi:rx="150"
       sodipodi:ry="150"
       d="m 650,500 a 150,150 0 1 1 -300,0 150,150 0 1 1 300,0 z"
       transform="translate(-150,202.36218)" />
    <path
       sodipodi:type="arc"
       style="fill:#0000ff;fill-opacity:1;stroke:none"
       id="path3008"
       sodipodi:cx="500"
       sodipodi:cy="500"
       sodipodi:rx="100"
       sodipodi:ry="100"
       d="m 600,500 a 100,100 0 1 1 -200,0 100,100 0 1 1 200,0 z"
       transform="translate(-150,202.36218)" />
    <rect
       style="fill:#ffffff;fill-opacity:1;stroke:none"
       id="rect3023"
       width="100"
       height="250"
       x="300"
       y="802.36218" />
    <path
       sodipodi:type="arc"
       style="fill:#0000ff;fill-opacity:1;stroke:none"
       id="path3006"
       sodipodi:cx="500"
       sodipodi:cy="500"
       sodipodi:rx="50"
       sodipodi:ry="50"
       d="m 550,500 a 50,50 0 1 1 -100,0 50,50 0 1 1 100,0 z"
       transform="translate(-150,202.36218)" />
  </g>
</svg>
