<?xml version="1.0" encoding="UTF-8" standalone="no"?>
<!-- Created with Inkscape (http://www.inkscape.org/) -->

<svg
   xmlns:dc="http://purl.org/dc/elements/1.1/"
   xmlns:cc="http://creativecommons.org/ns#"
   xmlns:rdf="http://www.w3.org/1999/02/22-rdf-syntax-ns#"
   xmlns:svg="http://www.w3.org/2000/svg"
   xmlns="http://www.w3.org/2000/svg"
   xmlns:sodipodi="http://sodipodi.sourceforge.net/DTD/sodipodi-0.dtd"
   xmlns:inkscape="http://www.inkscape.org/namespaces/inkscape"
   width="601"
   height="601"
   id="svg2"
   version="1.1"
   inkscape:version="0.91 r13725"
   sodipodi:docname="Settings.svg">
  <defs
     id="defs4" />
  <sodipodi:namedview
     id="base"
     pagecolor="#ffffff"
     bordercolor="#666666"
     borderopacity="1.0"
     inkscape:pageopacity="0.0"
     inkscape:pageshadow="2"
     inkscape:zoom="0.63832857"
     inkscape:cx="132.07327"
     inkscape:cy="309.68173"
     inkscape:document-units="px"
     inkscape:current-layer="layer1"
     showgrid="true"
     inkscape:window-width="1369"
     inkscape:window-height="850"
     inkscape:window-x="0"
     inkscape:window-y="0"
     inkscape:window-maximized="0"
     inkscape:snap-global="true"
     inkscape:snap-grids="true">
    <inkscape:grid
       type="xygrid"
       id="grid2985"
       empspacing="5"
       visible="true"
       enabled="true"
       snapvisiblegridlinesonly="true"
       spacingx="5px"
       spacingy="5px"
       originx="1px"
       originy="1px" />
  </sodipodi:namedview>
  <metadata
     id="metadata7">
    <rdf:RDF>
      <cc:Work
         rdf:about="">
        <dc:format>image/svg+xml</dc:format>
        <dc:type
           rdf:resource="http://purl.org/dc/dcmitype/StillImage" />
        <dc:title />
      </cc:Work>
    </rdf:RDF>
  </metadata>
  <g
     inkscape:groupmode="layer"
     id="layer1"
     inkscape:label="Ebene">
    <path
       sodipodi:type="star"
       style="fill:none;fill-opacity:1;stroke:#000000;stroke-width:158.76139832;stroke-miterlimit:4;stroke-dasharray:none;stroke-opacity:1"
       id="path3010"
       sodipodi:sides="9"
       sodipodi:cx="26"
       sodipodi:cy="25"
       sodipodi:r1="630.75232"
       sodipodi:r2="809.22723"
       sodipodi:arg1="0.62024947"
       sodipodi:arg2="0.96931534"
       inkscape:flatsided="false"
       inkscape:rounded="0.50069102"
       inkscape:randomized="0"
       d="m 539.26428,391.61733 c -88.94849,124.52789 70.8237,213.99353 -55.35159,300.5893 C 357.73742,778.80238 331.70964,597.54618 183.52617,635.76509 35.342692,673.984 100.22788,845.21824 -52.090678,830.45053 -204.40923,815.68283 -107.83842,660.10219 -245.92018,594.12907 -384.00195,528.15595 -444.36427,701.03639 -551.55455,591.81518 -658.74483,482.59399 -484.762,425.48683 -548.13206,286.19124 -611.50213,146.89564 -768.86775,240.5296 -780.77423,87.960712 -792.68072,-64.608161 -622.69436,3.4792241 -581.70117,-143.96088 c 40.9932,-147.44011 -139.7426,-176.86501 -50.79411,-301.3929 88.94848,-124.52788 175.39986,36.89521 301.57514,-49.70054 126.17528,-86.59576 6.63759,-225.31128 154.82107,-263.53019 148.183466,-38.21891 110.648303,141.00823 262.966852,155.77594 152.318558,14.76771 149.911988,-168.33189 287.993758,-102.35877 138.08176,65.97312 -5.87682,179.14193 101.31346,288.36313 107.19028,109.2212 223.04089,-32.58814 286.41096,106.70745 63.37007,139.29559 -119.65212,133.45314 -107.74563,286.022009 C 666.74681,128.49413 846.64682,94.32921 805.65363,241.76932 764.66044,389.20943 628.21277,267.08945 539.26428,391.61733 Z"
       inkscape:transform-center-x="31.650788"
       inkscape:transform-center-y="-31.750697"
       transform="matrix(0.31444211,0,0,0.31543471,298.01282,289.20953)" />
  </g>
</svg>
